<?xml version="1.0" standalone="no"?>
<!DOCTYPE svg PUBLIC "-//W3C//DTD SVG 20010904//EN"
 "http://www.w3.org/TR/2001/REC-SVG-20010904/DTD/svg10.dtd">
<svg version="1.0" xmlns="http://www.w3.org/2000/svg"
 width="500.000000pt" height="500.000000pt" viewBox="0 0 500.000000 500.000000"
 preserveAspectRatio="xMidYMid meet">
<metadata>
Created by potrace 1.14, written by Peter Selinger 2001-2017
</metadata>
<g transform="translate(0.000000,500.000000) scale(0.100000,-0.100000)"
fill="#000000" stroke="none">
<path d="M2097 4784 c-1 -1 -51 -5 -112 -9 -60 -4 -118 -7 -127 -8 -10 -1 -18
-5 -18 -10 0 -4 -4 -6 -9 -2 -6 3 -52 -4 -103 -15 -51 -12 -102 -23 -113 -25
-11 -3 -54 -16 -95 -30 -41 -14 -84 -28 -95 -30 -22 -5 -30 -9 -200 -91 -66
-32 -124 -62 -130 -66 -18 -15 -135 -88 -141 -88 -2 0 -15 -9 -27 -20 -12 -11
-49 -41 -82 -67 -51 -40 -127 -108 -169 -149 -89 -89 -253 -284 -239 -284 4 0
3 -4 -3 -8 -14 -10 -87 -118 -122 -182 -71 -128 -159 -315 -166 -355 -1 -5 -7
-20 -14 -31 -6 -12 -8 -24 -5 -28 3 -3 1 -6 -6 -6 -7 0 -10 -4 -6 -9 3 -5 -1
-27 -8 -48 -33 -89 -68 -247 -82 -358 -3 -27 -8 -72 -11 -100 -8 -65 -8 -355
0 -425 14 -133 47 -301 77 -395 11 -33 21 -70 23 -82 8 -39 99 -256 143 -340
54 -105 61 -117 101 -175 17 -26 32 -50 32 -53 0 -11 122 -169 189 -245 162
-184 384 -369 582 -484 61 -36 265 -137 319 -159 25 -10 54 -23 65 -27 87 -39
344 -111 445 -125 19 -3 46 -7 60 -10 98 -19 190 -27 370 -30 171 -2 314 8
412 29 12 3 41 8 63 11 22 3 68 13 103 21 35 9 71 17 80 19 9 2 18 4 20 5 1 2
5 3 10 4 113 29 281 96 444 177 326 163 637 419 874 720 32 42 66 86 74 99 8
12 25 35 38 50 12 15 22 30 22 33 0 3 24 43 53 89 52 82 133 241 177 343 12
28 25 59 30 70 61 143 149 492 154 613 1 12 3 22 6 22 3 0 6 17 7 38 1 20 3
72 6 114 3 64 0 84 -18 122 -39 80 -98 118 -184 118 -31 0 -63 -2 -71 -4 -21
-5 -73 -40 -83 -55 -4 -7 -13 -18 -20 -25 -24 -25 -36 -68 -43 -149 -6 -75
-10 -114 -14 -114 -1 0 -3 -18 -4 -40 -10 -123 -61 -315 -133 -500 -60 -154
-197 -405 -255 -469 -10 -11 -18 -23 -18 -27 0 -4 -6 -14 -13 -21 -7 -7 -28
-33 -47 -58 -47 -61 -82 -100 -170 -189 -97 -98 -126 -123 -235 -205 -50 -37
-95 -70 -100 -75 -80 -62 -334 -187 -480 -236 -136 -46 -197 -63 -325 -85
-136 -25 -425 -34 -565 -17 -324 37 -648 155 -918 334 -56 37 -107 72 -113 78
-6 5 -33 28 -60 49 -83 67 -304 296 -286 296 4 0 0 5 -9 10 -15 9 -107 140
-151 215 -104 175 -214 484 -232 646 -3 24 -8 58 -12 74 -12 53 -7 460 6 460
1 0 3 16 5 35 9 110 114 444 166 530 5 8 15 29 22 45 8 17 40 71 71 120 31 50
62 99 69 110 6 11 14 22 17 25 3 3 23 28 44 55 71 90 250 259 344 325 99 70
289 175 335 185 15 4 27 11 27 17 0 6 3 8 7 5 3 -4 12 -2 20 4 7 6 13 8 13 4
0 -4 6 -3 13 3 13 10 74 26 80 20 2 -2 10 2 18 8 14 12 168 46 259 59 140 19
407 5 545 -30 33 -9 69 -17 80 -19 50 -8 190 -62 290 -111 105 -52 276 -158
283 -176 2 -5 8 -9 13 -9 5 0 24 -15 43 -32 19 -18 56 -54 83 -79 40 -38 107
-112 141 -154 35 -44 101 -145 95 -145 -5 0 -3 -4 3 -8 18 -11 99 -178 132
-272 26 -75 38 -120 57 -220 31 -157 26 -370 -11 -550 -29 -143 -119 -359
-196 -474 -59 -87 -123 -165 -202 -241 -201 -195 -428 -308 -711 -354 -54 -9
-291 -7 -340 2 -25 5 -95 19 -115 23 -41 8 -154 50 -227 84 -128 60 -247 145
-352 251 -102 104 -199 262 -241 394 -7 22 -15 47 -18 55 -34 100 -48 322 -28
430 29 154 77 278 153 398 10 15 20 29 23 32 3 3 17 21 31 40 43 57 90 103
159 155 121 93 202 131 350 164 72 16 215 20 287 8 100 -17 237 -72 321 -129
55 -36 192 -175 192 -194 0 -7 3 -14 8 -16 13 -6 51 -84 73 -149 27 -84 33
-223 13 -309 -31 -132 -111 -257 -219 -340 -18 -14 -102 -54 -115 -56 -3 0
-20 -4 -38 -8 -229 -54 -476 139 -408 318 25 65 40 74 121 73 99 -1 160 36
201 121 53 112 -21 265 -138 286 -15 2 -32 7 -38 11 -12 8 -123 8 -165 0 -41
-7 -155 -55 -155 -65 0 -5 -9 -11 -19 -15 -30 -9 -112 -97 -150 -160 -58 -95
-87 -203 -85 -309 1 -50 4 -102 8 -116 3 -14 9 -38 12 -55 26 -119 144 -282
269 -370 72 -51 194 -110 250 -121 11 -2 44 -9 74 -15 53 -11 223 -15 238 -6
5 3 30 8 57 11 27 4 75 16 105 27 31 12 65 23 76 26 11 4 22 9 25 12 3 3 25
17 50 30 93 50 217 158 267 232 9 13 19 26 22 29 28 25 101 162 130 245 43
120 59 230 56 370 -2 71 -9 148 -15 170 -6 22 -11 48 -11 57 0 10 -4 20 -10
23 -5 4 -9 14 -9 25 0 10 -14 51 -31 91 -82 195 -224 369 -394 485 -138 94
-324 173 -470 199 -110 19 -291 24 -385 10 -128 -19 -290 -68 -375 -114 -22
-11 -45 -21 -52 -21 -7 0 -13 -3 -13 -8 0 -4 -13 -13 -28 -20 -92 -40 -382
-300 -382 -341 0 -5 -4 -11 -9 -13 -15 -5 -91 -126 -136 -217 -45 -89 -109
-269 -118 -331 -3 -19 -8 -46 -12 -60 -17 -74 -23 -281 -11 -408 7 -81 53
-268 85 -350 49 -123 157 -319 183 -330 4 -2 8 -9 8 -15 0 -14 87 -115 165
-192 73 -72 183 -160 243 -195 15 -8 32 -20 38 -26 6 -5 63 -36 125 -67 117
-57 283 -117 380 -136 30 -6 63 -12 74 -15 93 -19 351 -27 465 -13 46 5 146
22 185 32 47 10 75 19 108 31 20 8 37 12 37 9 0 -2 25 7 55 20 30 14 55 23 55
21 0 -3 51 22 113 53 97 50 257 151 293 185 6 6 26 22 43 36 17 14 68 63 114
109 115 118 127 131 127 141 0 6 5 10 10 10 6 0 10 7 10 15 0 8 4 15 9 15 7 0
60 73 96 132 40 66 65 112 65 119 0 5 5 9 12 9 6 0 9 3 5 6 -3 4 5 27 18 53
13 25 25 53 27 61 2 8 6 17 9 20 12 10 79 213 81 248 1 6 4 12 8 12 3 0 6 10
7 23 0 12 6 47 12 77 6 30 13 66 16 80 23 118 24 466 0 550 -2 8 -6 31 -9 50
-17 106 -86 343 -107 365 -5 5 -9 15 -9 22 0 19 -99 217 -111 221 -5 2 -9 8
-9 14 0 18 -97 158 -188 270 -24 30 -161 168 -202 203 -68 60 -168 135 -179
135 -6 0 -11 4 -11 8 0 7 -57 44 -134 89 -57 32 -231 116 -266 128 -3 1 -16 6
-30 12 -43 18 -150 53 -173 57 -12 3 -22 5 -22 6 0 1 -7 3 -15 5 -78 19 -158
36 -195 40 -16 3 -41 7 -55 10 -32 7 -317 24 -323 19z"/>
</g>
</svg>
